<svg width="43" height="43" viewBox="0 0 43 43" fill="none" xmlns="http://www.w3.org/2000/svg">
<g opacity="0.4">
<path fill-rule="evenodd" clip-rule="evenodd" d="M13.659 6.91187C13.1587 6.91187 12.6828 7.12784 12.3533 7.50435L2.1188 19.201C0.97407 20.5092 0.974072 22.4626 2.1188 23.7709L12.3533 35.4675C12.6828 35.844 13.1587 36.06 13.659 36.06H34.5226C37.2535 36.06 39.4673 33.8462 39.4673 31.1152V11.8566C39.4673 9.12571 37.2535 6.91187 34.5226 6.91187H13.659ZM5.23005 22.0572C4.94386 21.7301 4.94386 21.2418 5.23005 20.9147L14.1871 10.6781C14.3518 10.4898 14.5898 10.3818 14.8399 10.3818H34.5226C35.3371 10.3818 35.9973 11.0421 35.9973 11.8566V31.1152C35.9973 31.9298 35.3371 32.59 34.5226 32.59H14.8399C14.5898 32.59 14.3518 32.4821 14.1871 32.2938L5.23005 22.0572ZM29.6061 15.4449C30.2837 16.1224 30.2837 17.221 29.6061 17.8985L26.6317 20.8729C26.2929 21.2117 26.2929 21.761 26.6317 22.0998L29.6061 25.0742C30.2837 25.7517 30.2837 26.8503 29.6061 27.5278C28.9286 28.2054 27.83 28.2054 27.1525 27.5278L24.178 24.5534C23.8393 24.2146 23.29 24.2146 22.9512 24.5534L19.9768 27.5278C19.2992 28.2054 18.2007 28.2054 17.5232 27.5278C16.8456 26.8503 16.8456 25.7517 17.5232 25.0742L20.4976 22.0998C20.8364 21.761 20.8364 21.2117 20.4976 20.8729L17.5232 17.8985C16.8456 17.221 16.8456 16.1224 17.5232 15.4449C18.2007 14.7673 19.2992 14.7673 19.9768 15.4449L22.9512 18.4193C23.29 18.7581 23.8393 18.7581 24.178 18.4193L27.1525 15.4449C27.83 14.7673 28.9286 14.7673 29.6061 15.4449Z" fill="#464C5C"/>
</g>
</svg>
